<svg width="24" height="24" viewBox="0 0 24 24" fill="none" xmlns="http://www.w3.org/2000/svg">
<path d="M16.25 4C16.25 3.30964 15.6904 2.75 15 2.75C14.3096 2.75 13.75 3.30964 13.75 4C13.75 4.69036 14.3096 5.25 15 5.25C15.6904 5.25 16.25 4.69036 16.25 4ZM17.75 4C17.75 5.51878 16.5188 6.75 15 6.75C13.4812 6.75 12.25 5.51878 12.25 4C12.25 2.48122 13.4812 1.25 15 1.25C16.5188 1.25 17.75 2.48122 17.75 4Z" fill="#1C252E"/>
<path d="M6 21C7.65685 21 9 19.6569 9 18C9 16.3431 7.65685 15 6 15C4.34315 15 3 16.3431 3 18C3 19.6569 4.34315 21 6 21Z" fill="#96F658"/>
<path d="M8.25 18C8.25 16.7574 7.24264 15.75 6 15.75C4.75736 15.75 3.75 16.7574 3.75 18C3.75 19.2426 4.75736 20.25 6 20.25C7.24264 20.25 8.25 19.2426 8.25 18ZM9.75 18C9.75 20.0711 8.07107 21.75 6 21.75C3.92893 21.75 2.25 20.0711 2.25 18C2.25 15.9289 3.92893 14.25 6 14.25C8.07107 14.25 9.75 15.9289 9.75 18Z" fill="#1C252E"/>
<path d="M18 21C19.6569 21 21 19.6569 21 18C21 16.3431 19.6569 15 18 15C16.3431 15 15 16.3431 15 18C15 19.6569 16.3431 21 18 21Z" fill="#96F658"/>
<path d="M20.25 18C20.25 16.7574 19.2426 15.75 18 15.75C16.7574 15.75 15.75 16.7574 15.75 18C15.75 19.2426 16.7574 20.25 18 20.25C19.2426 20.25 20.25 19.2426 20.25 18ZM21.75 18C21.75 20.0711 20.0711 21.75 18 21.75C15.9289 21.75 14.25 20.0711 14.25 18C14.25 15.9289 15.9289 14.25 18 14.25C20.0711 14.25 21.75 15.9289 21.75 18Z" fill="#1C252E"/>
<path d="M9.95884 5.80763C10.4536 5.76243 10.8513 5.96699 11.1747 6.20802C11.4819 6.43706 11.8199 6.7756 12.1961 7.14942L12.7723 7.72267C13.6822 8.62627 13.9988 8.9228 14.3797 9.08009C14.7591 9.23687 15.1936 9.25001 16.4745 9.25001H18.4999C18.9141 9.25001 19.2499 9.5858 19.2499 10C19.2499 10.4142 18.9141 10.75 18.4999 10.75H16.4745C15.4605 10.75 14.7292 10.76 14.0809 10.5635L13.8075 10.4658C13.0888 10.1691 12.5394 9.60514 11.7157 8.78712L11.7147 8.78614L11.1395 8.2129L10.6307 7.71583C10.4918 7.58472 10.3789 7.48525 10.2782 7.41017C10.1848 7.34059 10.1308 7.3142 10.1053 7.3047C10.0995 7.30254 10.0957 7.30132 10.0936 7.30079C10.0915 7.30178 10.0884 7.30391 10.0838 7.30665C10.0605 7.32061 10.0116 7.35608 9.93248 7.44142C9.84696 7.53362 9.75438 7.65245 9.64146 7.80665L9.2313 8.38771L8.00377 10.1543C7.66963 10.6357 7.46724 10.9321 7.3524 11.1611C7.29913 11.2674 7.28224 11.3268 7.2772 11.3545C7.27634 11.3593 7.27549 11.3628 7.27525 11.3652C7.27677 11.3673 7.27961 11.3702 7.28306 11.374C7.30197 11.395 7.34734 11.4368 7.4481 11.499C7.66601 11.6336 7.99411 11.7786 8.53111 12.0127L10.0067 12.6563C10.6722 12.9465 11.2325 13.1897 11.662 13.4414C12.1087 13.7032 12.4859 14.0143 12.7391 14.4775C12.9923 14.9409 13.0499 15.4264 13.0292 15.9434C13.0192 16.1918 12.9902 16.4665 12.9491 16.7686L12.7977 17.7588L12.7411 18.1172C12.6761 18.5262 12.2917 18.8051 11.8827 18.7402C11.4737 18.6753 11.1949 18.2918 11.2596 17.8828L11.3163 17.5234C11.4362 16.7708 11.5146 16.2705 11.5301 15.8828C11.5449 15.5153 11.4974 15.3329 11.4227 15.1963C11.3479 15.0597 11.2201 14.9211 10.9032 14.7354C10.7359 14.6374 10.5367 14.5373 10.2919 14.4238L9.40709 14.0313L7.9315 13.3877C7.43697 13.1721 6.99056 12.9795 6.66002 12.7754C6.31186 12.5604 5.97039 12.2607 5.83189 11.7764L5.83091 11.7734C5.6945 11.2885 5.82827 10.854 6.01158 10.4883C6.18574 10.141 6.4646 9.74318 6.77232 9.29982L7.99888 7.53224L8.4315 6.91896C8.56962 6.73092 8.70265 6.56228 8.83287 6.42189C9.10758 6.12568 9.46279 5.85243 9.95884 5.80763Z" fill="#1C252E"/>
</svg>
