<svg width="24" height="24" viewBox="0 0 24 24" fill="none" xmlns="http://www.w3.org/2000/svg">
<path d="M21.25 6.7998C21.25 5.63987 21.2469 4.87378 21.1406 4.30469C21.0442 3.78854 20.8782 3.52338 20.585 3.3125C20.2576 3.07654 19.779 2.91729 18.919 2.83398C18.0558 2.75041 16.9195 2.75 15.333 2.75H8.667C7.08052 2.75 5.94417 2.75041 5.08106 2.83398C4.22104 2.91729 3.7424 3.07556 3.41504 3.31152C3.12183 3.5224 2.95579 3.78854 2.85938 4.30469C2.75314 4.87378 2.75001 5.63987 2.75001 6.7998V11.5C2.75001 12.6603 2.75307 13.4269 2.85938 13.9961C2.94377 14.4476 3.08104 14.7072 3.31055 14.9062L3.41504 14.9883C3.74239 15.2242 4.22105 15.3825 5.08106 15.4658C5.85468 15.5407 6.84762 15.5479 8.18751 15.5488L8.69532 14.4521C8.80035 14.2253 8.93053 14.0104 9.08204 13.8115C9.35351 13.4552 9.69184 13.1555 10.0781 12.9287L10.4844 12.6904C10.9751 12.4024 11.5335 12.25 12.1025 12.25C12.4462 12.25 12.7882 12.3054 13.1143 12.4141L13.1768 12.4346C13.9904 12.7058 14.6718 13.27 15.0908 14.0137L15.1709 14.165L15.1807 14.1846L15.8115 15.5488C17.1519 15.5479 18.1451 15.5407 18.919 15.4658C19.779 15.3825 20.2576 15.2242 20.585 14.9883L20.6895 14.9062C20.919 14.7072 21.0562 14.4476 21.1406 13.9961C21.2469 13.4269 21.25 12.6603 21.25 11.5V6.7998ZM22.75 11.5C22.75 12.6021 22.7531 13.5334 22.6152 14.2715C22.4675 15.0624 22.1443 15.7146 21.4609 16.2061L21.46 16.2051C20.8121 16.6716 20.0181 16.8665 19.0635 16.959C18.111 17.0512 16.8888 17.0498 15.333 17.0498H14.8545L14.6523 16.6152L13.8242 14.8271C13.5923 14.369 13.1895 14.0209 12.7022 13.8584L12.6397 13.8369C12.4666 13.7792 12.285 13.75 12.1025 13.75C11.8005 13.75 11.5037 13.8305 11.2432 13.9834L10.8379 14.2217C10.6197 14.3497 10.4277 14.5195 10.2744 14.7207C10.189 14.8329 10.1159 14.9541 10.0566 15.082L9.34766 16.6152L9.14551 17.0498H8.667C7.11125 17.0498 5.88897 17.0512 4.93653 16.959C3.98163 16.8665 3.18705 16.6719 2.53907 16.2051C1.85572 15.7136 1.53256 15.0624 1.38477 14.2715C1.24692 13.5334 1.25001 12.6021 1.25001 11.5V6.7998C1.25001 5.69798 1.247 4.76723 1.38477 4.0293C1.53248 3.23849 1.85509 2.5862 2.53809 2.09473C3.18616 1.62759 3.9814 1.43431 4.93653 1.3418C5.88897 1.24957 7.11125 1.25 8.667 1.25H15.333C16.8888 1.25 18.111 1.24957 19.0635 1.3418C20.0186 1.43431 20.8139 1.62759 21.4619 2.09473C22.1454 2.58625 22.4675 3.23824 22.6152 4.0293C22.753 4.76723 22.75 5.69798 22.75 6.7998V11.5Z" fill="#1C252E"/>
<path d="M14.5 5.25C14.9142 5.25 15.25 5.58579 15.25 6C15.25 6.41421 14.9142 6.75 14.5 6.75H9.50001C9.08579 6.75 8.75001 6.41421 8.75001 6C8.75001 5.58579 9.08579 5.25 9.50001 5.25H14.5Z" fill="black"/>
<path d="M14.5 5.25C14.9142 5.25 15.25 5.58579 15.25 6C15.25 6.41421 14.9142 6.75 14.5 6.75H9.50001C9.08579 6.75 8.75001 6.41421 8.75001 6C8.75001 5.58579 9.08579 5.25 9.50001 5.25H14.5Z" fill="#1C252E"/>
<path d="M16 8.25C16.4142 8.25 16.75 8.58579 16.75 9C16.75 9.41421 16.4142 9.75 16 9.75H8.00001C7.58579 9.75 7.25001 9.41421 7.25001 9C7.25001 8.58579 7.58579 8.25 8.00001 8.25H16Z" fill="black"/>
<path d="M16 8.25C16.4142 8.25 16.75 8.58579 16.75 9C16.75 9.41421 16.4142 9.75 16 9.75H8.00001C7.58579 9.75 7.25001 9.41421 7.25001 9C7.25001 8.58579 7.58579 8.25 8.00001 8.25H16Z" fill="#1C252E"/>
<path d="M9.64454 17.4903L8.59864 18.5362L8.59278 18.5411L7.11524 19.9581C7.02993 20.04 6.96245 20.1072 6.90626 20.1622C6.97907 20.17 7.06589 20.1818 7.17188 20.1924C7.37444 20.212 7.60869 20.2301 7.81934 20.3038C8.03427 20.3785 8.23134 20.4988 8.39551 20.6563C8.55967 20.8139 8.68806 21.0052 8.77149 21.2169L8.77247 21.2198C8.85657 21.4355 8.87603 21.6743 8.89649 21.8702C8.90913 21.9888 8.92167 22.0816 8.93067 22.1563C9.00136 22.092 9.09401 22.008 9.21973 21.8878L12.001 19.2208L14.7822 21.8878C14.9076 22.0077 14.9997 22.092 15.0703 22.1563C15.0793 22.0816 15.0928 21.9888 15.1055 21.8702C15.1259 21.6743 15.1454 21.4355 15.2295 21.2198L15.2305 21.2169C15.3139 21.0051 15.4423 20.8139 15.6065 20.6563C15.7702 20.4992 15.9655 20.3785 16.1797 20.3038C16.3914 20.2294 16.626 20.2124 16.832 20.1924C16.9367 20.1822 17.0225 20.1708 17.0947 20.1631C17.0385 20.1081 16.972 20.0399 16.8867 19.9581L15.4082 18.5421L15.3965 18.5303L14.4707 17.6026L15.5313 16.543L16.4463 17.4581L17.9248 18.8751L17.9258 18.876C18.0809 19.025 18.22 19.1581 18.3252 19.2706C18.421 19.373 18.5491 19.5207 18.6318 19.7081C18.6339 19.7126 18.6367 19.7171 18.6387 19.7217C18.7727 20.0293 18.7885 20.3754 18.6836 20.6944C18.5771 21.0179 18.3532 21.2897 18.0566 21.4571C17.8709 21.5621 17.6714 21.6013 17.5313 21.6231L16.9775 21.6856C16.8471 21.6982 16.7728 21.7052 16.7178 21.713C16.6972 21.7159 16.6846 21.7184 16.6777 21.7198L16.6738 21.7208C16.6631 21.7246 16.6528 21.7304 16.6445 21.7383C16.6369 21.7458 16.6311 21.7549 16.627 21.7647L16.625 21.7842C16.6173 21.8336 16.6098 21.9027 16.5967 22.0284C16.5752 22.23 16.5554 22.4162 16.5303 22.5645C16.5069 22.7025 16.4647 22.9045 16.3496 23.0919C15.9758 23.7004 15.2283 23.8879 14.6143 23.6485L14.6074 23.6465C14.4194 23.571 14.2671 23.4499 14.1563 23.3546L13.7451 22.9717L12.001 21.2989L10.2568 22.9717C10.101 23.1208 9.96255 23.2541 9.84571 23.3546C9.73482 23.4499 9.58263 23.57 9.39454 23.6456L9.3877 23.6485C8.81193 23.8729 8.1189 23.7225 7.72657 23.2012L7.65235 23.0928C7.53697 22.9053 7.49512 22.7027 7.47169 22.5645C7.44655 22.4162 7.42677 22.2309 7.40528 22.0294C7.39213 21.9036 7.38466 21.8336 7.37696 21.7842C7.37016 21.7407 7.36725 21.7448 7.37501 21.7647C7.37081 21.755 7.36502 21.7457 7.35743 21.7383C7.34916 21.7304 7.33894 21.7246 7.32813 21.7208L7.32227 21.7188C7.33686 21.724 7.33526 21.72 7.28516 21.713C7.22998 21.7052 7.15501 21.6982 7.02442 21.6856H7.02247C6.81239 21.6646 6.62207 21.6453 6.47169 21.6221C6.33278 21.6007 6.13108 21.5637 5.94434 21.4581L5.94532 21.4571C5.64879 21.2897 5.42483 21.0179 5.31837 20.6944C5.21346 20.3753 5.2311 20.0294 5.36524 19.7217H5.36329C5.44568 19.5276 5.57858 19.3756 5.67676 19.2706C5.78199 19.158 5.92188 19.0251 6.07715 18.876L7.55469 17.459L8.58399 16.4297L9.64454 17.4903Z" fill="#1C252E"/>
<path d="M12 19C13.6569 19 15 17.6569 15 16C15 14.3431 13.6569 13 12 13C10.3432 13 9.00001 14.3431 9.00001 16C9.00001 17.6569 10.3432 19 12 19Z" fill="white"/>
<path d="M12 19C13.6569 19 15 17.6569 15 16C15 14.3431 13.6569 13 12 13C10.3432 13 9.00001 14.3431 9.00001 16C9.00001 17.6569 10.3432 19 12 19Z" fill="#96F658"/>
<path d="M14.25 16C14.25 14.7574 13.2426 13.75 12 13.75C10.7574 13.75 9.75001 14.7574 9.75001 16C9.75001 17.2426 10.7574 18.25 12 18.25C13.2426 18.25 14.25 17.2426 14.25 16ZM15.75 16C15.75 18.0711 14.0711 19.75 12 19.75C9.92894 19.75 8.25001 18.0711 8.25001 16C8.25001 13.9289 9.92894 12.25 12 12.25C14.0711 12.25 15.75 13.9289 15.75 16Z" fill="#1C252E"/>
</svg>
