<svg width="24" height="24" viewBox="0 0 24 24" fill="none" xmlns="http://www.w3.org/2000/svg">
<path d="M14 15L18.5 10.5L21.5 13.5L16 18.5H13L14 15Z" fill="#96F658"/>
<path d="M21.9989 10.9658C21.9988 10.7098 21.8966 10.4643 21.7157 10.2832C21.5344 10.1021 21.2883 9.99995 21.0321 10C20.7759 10.0001 20.5306 10.1021 20.3494 10.2832L20.3485 10.2822L20.2772 10.3535C20.3651 10.5912 20.5237 10.896 20.8133 11.1855C21.1017 11.474 21.4058 11.6316 21.6434 11.7197L21.7147 11.6494C21.8958 11.4682 21.9989 11.222 21.9989 10.9658ZM15.6258 15.0068L15.6239 15.0098C15.3208 15.3107 15.2263 15.408 15.1492 15.5068C15.0476 15.6371 14.9619 15.7775 14.8905 15.9277L14.8895 15.9297C14.8625 15.9861 14.8381 16.0451 14.8035 16.1416L14.6551 16.5762L14.3035 17.6309L14.367 17.6943L15.4227 17.3438L15.8582 17.1953C15.954 17.161 16.013 17.1372 16.0692 17.1104L16.0711 17.1094C16.2214 17.038 16.3618 16.9512 16.492 16.8496L16.6649 16.6973C16.7393 16.6262 16.8398 16.5263 16.993 16.373L20.159 13.2061C19.9082 13.0482 19.6486 12.8509 19.3983 12.6006C19.1477 12.35 18.9508 12.0899 18.7928 11.8389L15.6258 15.0068ZM23.9989 10.9658C23.9989 11.7521 23.6854 12.5053 23.1297 13.0615L23.1307 13.0625L22.6678 13.5264L18.4071 17.7871C18.1338 18.0604 17.9402 18.2562 17.7215 18.4268C17.4764 18.6179 17.2123 18.7794 16.9315 18.9131L16.9324 18.9141C16.6813 19.0341 16.4186 19.1202 16.0555 19.2412L14.8153 19.6543L14.8143 19.6533L14.0135 19.9219H14.0116C13.7423 20.0112 13.4536 20.0243 13.1776 19.959C12.9014 19.8936 12.6488 19.7524 12.4481 19.5518C12.2474 19.3511 12.1062 19.0984 12.0408 18.8223C11.9756 18.5465 11.9889 18.2582 12.078 17.9893L12.3455 17.1836L12.7576 15.9443C12.8787 15.5811 12.9647 15.3176 13.0848 15.0664C13.2184 14.7857 13.3811 14.5223 13.5721 14.2773C13.7429 14.0583 13.937 13.8656 14.2137 13.5908L18.9344 8.87012C19.4906 8.31376 20.2454 8.00014 21.0321 8C21.8186 7.99993 22.5734 8.31207 23.1297 8.86816C23.686 9.42431 23.9987 10.1792 23.9989 10.9658Z" fill="#1C252E"/>
<path d="M14 6C14.5523 6 15 6.44772 15 7C15 7.55228 14.5523 8 14 8H6C5.44772 8 5 7.55228 5 7C5 6.44772 5.44772 6 6 6H14Z" fill="#1C252E"/>
<path d="M11.5 10C12.0523 10 12.5 10.4477 12.5 11C12.5 11.5523 12.0523 12 11.5 12H6C5.44772 12 5 11.5523 5 11C5 10.4477 5.44772 10 6 10H11.5Z" fill="#1C252E"/>
<path d="M9 14C9.55228 14 10 14.4477 10 15C10 15.5523 9.55228 16 9 16H6C5.44772 16 5 15.5523 5 15C5 14.4477 5.44772 14 6 14H9Z" fill="#1C252E"/>
<path d="M1 12C1 10.1494 0.999003 8.69448 1.10449 7.53027C1.21125 6.35232 1.43312 5.37368 1.9375 4.5C2.55188 3.43587 3.43587 2.55188 4.5 1.9375C5.37368 1.43312 6.35232 1.21125 7.53027 1.10449C8.69448 0.999003 10.1494 1 12 1C13.8506 1 15.3055 0.999003 16.4697 1.10449C17.6477 1.21125 18.6263 1.43312 19.5 1.9375C20.5641 2.55188 21.4481 3.43587 22.0625 4.5C22.3385 4.97826 22.1745 5.59009 21.6963 5.86621C21.218 6.14235 20.6062 5.97829 20.3301 5.5C19.8912 4.73992 19.2601 4.10876 18.5 3.66992C17.9814 3.37052 17.3284 3.19087 16.2891 3.09668C15.2361 3.00128 13.8874 3 12 3C10.1126 3 8.76392 3.00128 7.71094 3.09668C6.67164 3.19087 6.01859 3.37052 5.5 3.66992C4.73992 4.10876 4.10876 4.73992 3.66992 5.5C3.37052 6.01859 3.19087 6.67164 3.09668 7.71094C3.00128 8.76392 3 10.1126 3 12C3 13.8874 3.00128 15.2361 3.09668 16.2891C3.19087 17.3284 3.37052 17.9814 3.66992 18.5C4.10876 19.2601 4.73992 19.8912 5.5 20.3301C6.01859 20.6295 6.67164 20.8091 7.71094 20.9033C8.76392 20.9987 10.1126 21 12 21C13.8874 21 15.2361 20.9987 16.2891 20.9033C17.3284 20.8091 17.9814 20.6295 18.5 20.3301C19.2601 19.8912 19.8912 19.2601 20.3301 18.5C20.6062 18.0217 21.218 17.8576 21.6963 18.1338C22.1745 18.4099 22.3385 19.0217 22.0625 19.5C21.4481 20.5641 20.5641 21.4481 19.5 22.0625C18.6263 22.5669 17.6477 22.7887 16.4697 22.8955C15.3055 23.001 13.8506 23 12 23C10.1494 23 8.69448 23.001 7.53027 22.8955C6.35232 22.7887 5.37368 22.5669 4.5 22.0625C3.43587 21.4481 2.55188 20.5641 1.9375 19.5C1.43312 18.6263 1.21125 17.6477 1.10449 16.4697C0.999003 15.3055 1 13.8506 1 12Z" fill="#1C252E"/>
</svg>
