<svg width="24" height="24" viewBox="0 0 24 24" fill="none" xmlns="http://www.w3.org/2000/svg">
<g clip-path="url(#clip0_11272_33667)">
<path d="M22 12C22 6.47715 17.5228 2 12 2C6.47715 2 2 6.47715 2 12C2 17.5228 6.47715 22 12 22C17.5228 22 22 17.5228 22 12ZM23.5 12C23.5 18.3513 18.3513 23.5 12 23.5C5.64873 23.5 0.5 18.3513 0.5 12C0.5 5.64873 5.64873 0.5 12 0.5C18.3513 0.5 23.5 5.64873 23.5 12Z" fill="black"/>
<path d="M6.25 12C6.25 8.30421 9.12266 5.25 12.7363 5.25C14.3927 5.25002 15.9014 5.89664 17.043 6.95215C17.3471 7.23336 17.3662 7.70857 17.085 8.0127C16.8037 8.31681 16.3285 8.33492 16.0244 8.05371C15.1429 7.23867 13.9925 6.75002 12.7363 6.75C10.0139 6.75 7.75 9.06837 7.75 12C7.75 14.9316 10.0139 17.25 12.7363 17.25C14.1951 17.25 15.5138 16.5904 16.4316 15.5244C16.7019 15.2106 17.1754 15.1752 17.4893 15.4453C17.8031 15.7155 17.8385 16.189 17.5684 16.5029C16.3863 17.8759 14.6625 18.75 12.7363 18.75C9.12266 18.75 6.25 15.6958 6.25 12Z" fill="black"/>
<path d="M11 9.25C11.4142 9.25 11.75 9.58579 11.75 10C11.75 10.4142 11.4142 10.75 11 10.75H5C4.58579 10.75 4.25 10.4142 4.25 10C4.25 9.58579 4.58579 9.25 5 9.25H11Z" fill="black"/>
<path d="M11 13.25C11.4142 13.25 11.75 13.5858 11.75 14C11.75 14.4142 11.4142 14.75 11 14.75H5C4.58579 14.75 4.25 14.4142 4.25 14C4.25 13.5858 4.58579 13.25 5 13.25H11Z" fill="black"/>
</g>
<defs>
<clipPath id="clip0_11272_33667">
<rect width="24" height="24" fill="white"/>
</clipPath>
</defs>
</svg>
