<svg width="24" height="24" viewBox="0 0 24 24" fill="none" xmlns="http://www.w3.org/2000/svg">
<path d="M15 4C15 5.65685 13.6569 7 12 7C10.3431 7 9 5.65685 9 4C9 2.34315 10.3431 1 12 1C13.6569 1 15 2.34315 15 4Z" fill="#96F658"/>
<path d="M13.5 4C13.5 3.17157 12.8284 2.5 12 2.5C11.1716 2.5 10.5 3.17157 10.5 4C10.5 4.82843 11.1716 5.5 12 5.5V7C10.3431 7 9 5.65685 9 4C9 2.34315 10.3431 1 12 1C13.6569 1 15 2.34315 15 4C15 5.65685 13.6569 7 12 7V5.5C12.8284 5.5 13.5 4.82843 13.5 4Z" fill="#1C252E"/>
<path d="M1.25 17.1875C1.25 16.1316 1.78015 15.2036 2.57617 14.4541C2.87777 14.1702 3.35279 14.1847 3.63672 14.4863C3.92027 14.7879 3.90587 15.2621 3.60449 15.5459C3.00631 16.109 2.75 16.6681 2.75 17.1875C2.75 18.0642 3.51291 19.0772 5.25391 19.915C6.94152 20.7272 9.32589 21.25 12 21.25C14.6741 21.25 17.0585 20.7272 18.7461 19.915C20.4871 19.0772 21.25 18.0642 21.25 17.1875C21.25 16.6681 20.9937 16.109 20.3955 15.5459C20.0941 15.2621 20.0797 14.7879 20.3633 14.4863C20.6472 14.1847 21.1222 14.1702 21.4238 14.4541C22.2199 15.2036 22.75 16.1316 22.75 17.1875C22.75 18.9687 21.2747 20.3627 19.3965 21.2666C17.4648 22.1962 14.8487 22.75 12 22.75C9.15127 22.75 6.53519 22.1962 4.60352 21.2666C2.72527 20.3627 1.25 18.9687 1.25 17.1875Z" fill="#1C252E"/>
<path d="M10.3545 17.0442L11.4887 14.7162C11.6813 14.3209 12.2536 14.3488 12.4068 14.7609L13.1907 16.8691C13.4434 17.549 14.0923 18 14.8176 18C16.0767 18 16.9169 16.7016 16.4011 15.5531L14.9461 12.3133C14.8258 12.0454 14.9611 11.7321 15.2386 11.636L17.2073 10.9542C18.1299 10.6347 18.523 9.54574 18.0173 8.71053C17.6752 8.14569 17.01 7.86321 16.366 8.00933L12.1086 8.97536C12.0371 8.99159 11.9629 8.99189 11.8912 8.97622L7.47168 8.00997C6.80882 7.86505 6.13083 8.18085 5.81527 8.78152C5.38625 9.59814 5.78475 10.6051 6.65642 10.907L8.72636 11.6238C9.01617 11.7242 9.14814 12.0594 9.00453 12.3304L7.32316 15.5032C6.72296 16.6358 7.54396 18 8.82575 18C9.47618 18 10.0696 17.629 10.3545 17.0442Z" fill="#96F658"/>
<path d="M16.2002 7.27827C17.1591 7.06071 18.1499 7.48116 18.6592 8.32221C19.412 9.56572 18.8266 11.1871 17.4531 11.663L15.7412 12.2548L17.085 15.246C17.8236 16.8908 16.6204 18.7499 14.8174 18.7499C13.7788 18.7498 12.8493 18.1043 12.4873 17.1308L11.9072 15.5693L11.0283 17.373C10.6178 18.2153 9.76316 18.7498 8.82617 18.7499C6.9792 18.7499 5.79561 16.7843 6.66016 15.1523L8.2041 12.2373L6.41113 11.6162C5.10578 11.1641 4.50889 9.65549 5.15137 8.43256C5.62397 7.53313 6.63924 7.06029 7.63184 7.27729L11.998 8.23139L16.2002 7.27827ZM16.5322 8.74116L12.2744 9.70698C12.0958 9.74748 11.9104 9.74799 11.7314 9.70893L7.31152 8.74311C6.97847 8.67029 6.63805 8.829 6.47949 9.13081C6.26415 9.54107 6.46446 10.0465 6.90234 10.1982L8.97168 10.915C9.69621 11.1659 10.026 12.0041 9.66699 12.6816L7.98633 15.8544C7.65084 16.4875 8.1097 17.2499 8.82617 17.2499C9.18957 17.2498 9.52149 17.0425 9.68066 16.7158L10.8145 14.3876L10.8623 14.2978C11.3677 13.4333 12.6529 13.4962 13.0713 14.4062L13.1094 14.4999L13.8936 16.6074C14.0371 16.9934 14.4055 17.2498 14.8174 17.2499C15.5324 17.2499 16.0097 16.5126 15.7168 15.8603L14.2617 12.621C13.961 11.9514 14.2996 11.1679 14.9932 10.9277L16.9619 10.2451C17.4332 10.0817 17.6344 9.52529 17.376 9.09858C17.2012 8.81015 16.8612 8.66658 16.5322 8.74116Z" fill="#1C252E"/>
</svg>
