<svg width="24" height="24" viewBox="0 0 24 24" fill="none" xmlns="http://www.w3.org/2000/svg">
<path d="M1.24951 6.14233C1.24951 4.84483 1.76466 3.59984 2.68213 2.68237C3.5996 1.7649 4.84459 1.24976 6.14209 1.24976C7.4394 1.24985 8.6837 1.76507 9.60107 2.68237L21.3159 14.3992C22.2334 15.3166 22.7495 16.5616 22.7495 17.8591C22.7495 19.1566 22.2343 20.4007 21.3169 21.3181C20.8626 21.7724 20.3235 22.1328 19.73 22.3787C19.1365 22.6245 18.5003 22.7507 17.8579 22.7507C16.5604 22.7507 15.3154 22.2356 14.3979 21.3181L2.68213 9.60132C1.76483 8.68394 1.2496 7.43964 1.24951 6.14233ZM2.74951 6.14233C2.7496 7.04182 3.10668 7.9047 3.74268 8.54077L15.4595 20.2576C16.0956 20.8936 16.9583 21.2507 17.8579 21.2507C18.3033 21.2507 18.7443 21.1634 19.1558 20.9929C19.5673 20.8224 19.9414 20.5726 20.2563 20.2576C20.8925 19.6214 21.2495 18.7587 21.2495 17.8591C21.2495 16.9595 20.8924 16.0968 20.2563 15.4607L8.54053 3.74292C7.90446 3.10692 7.04157 2.74985 6.14209 2.74976C5.24241 2.74976 4.37884 3.10675 3.74268 3.74292C3.10651 4.37909 2.74951 5.24266 2.74951 6.14233Z" fill="black"/>
<path d="M11.9997 17.858L9.07074 20.787C8.29392 21.5638 7.24033 22.0002 6.14174 22.0002C5.04316 22.0002 3.98956 21.5638 3.21274 20.787C2.43592 20.0102 1.99951 18.9566 1.99951 17.858C1.99951 16.7594 2.43592 15.7058 3.21274 14.929L6.14274 12L11.9997 17.858ZM11.9997 6.14199L14.9287 3.21299C15.7056 2.43617 16.7592 1.99976 17.8577 1.99976C18.9563 1.99976 20.0099 2.43617 20.7867 3.21299C21.5636 3.98981 22 5.0434 22 6.14199C22 7.24058 21.5636 8.29417 20.7867 9.07099L17.8567 12L11.9997 6.14199Z" fill="#96F658"/>
<path d="M13.0601 17.8582L9.60107 21.3171C8.68368 22.2345 7.43946 22.7497 6.14209 22.7498C4.84459 22.7498 3.5996 22.2346 2.68213 21.3171C1.76484 20.3997 1.24956 19.1555 1.24951 17.8582C1.24951 16.5607 1.76466 15.3157 2.68213 14.3982L6.14307 10.9392L13.0601 17.8582ZM21.2495 6.14233C21.2495 5.24266 20.8925 4.37909 20.2563 3.74292C19.6202 3.10694 18.7574 2.7498 17.8579 2.74976C16.9584 2.74976 16.0956 3.107 15.4595 3.74292L13.0601 6.14233L17.8569 10.9392L20.2563 8.54077C20.8924 7.90469 21.2494 7.04189 21.2495 6.14233ZM2.74951 17.8582C2.74956 18.7577 3.10669 19.6205 3.74268 20.2566C4.37884 20.8928 5.24241 21.2498 6.14209 21.2498C7.04164 21.2497 7.90444 20.8927 8.54053 20.2566L10.939 17.8572L6.14209 13.0603L3.74268 15.4597C3.10676 16.0958 2.74951 16.9587 2.74951 17.8582ZM22.7495 6.14233C22.7494 7.35872 22.2965 8.52816 21.4839 9.42554L21.3169 9.60132L17.8569 13.0603L10.939 6.14233L14.3979 2.68237C15.3154 1.7649 16.5604 1.24976 17.8579 1.24976C19.1552 1.2498 20.3995 1.76509 21.3169 2.68237C22.2344 3.59984 22.7495 4.84483 22.7495 6.14233Z" fill="black"/>
<path d="M15.8407 12.871C15.9171 12.9434 15.9783 13.0304 16.0205 13.1268C16.0627 13.2232 16.0852 13.3271 16.0866 13.4324C16.088 13.5376 16.0683 13.6421 16.0287 13.7396C15.9891 13.8371 15.9303 13.9257 15.8559 14.0001C15.7814 14.0745 15.6929 14.1333 15.5953 14.1729C15.4978 14.2126 15.3934 14.2323 15.2881 14.2309C15.1829 14.2294 15.079 14.207 14.9825 14.1647C14.8861 14.1225 14.7992 14.0614 14.7267 13.985C14.5855 13.836 14.508 13.6377 14.5107 13.4324C14.5135 13.227 14.5963 13.0309 14.7415 12.8857C14.8867 12.7405 15.0828 12.6577 15.2881 12.655C15.4934 12.6522 15.6917 12.7297 15.8407 12.871ZM12.1287 9.15899C12.0556 9.08584 11.9688 9.02782 11.8732 8.98823C11.7776 8.94864 11.6752 8.92827 11.5717 8.92827C11.4683 8.92827 11.3659 8.94864 11.2703 8.98823C11.1747 9.02782 11.0879 9.08584 11.0147 9.15899C10.9416 9.23213 10.8836 9.31897 10.844 9.41454C10.8044 9.51011 10.784 9.61254 10.784 9.71599C10.784 9.81943 10.8044 9.92186 10.844 10.0174C10.8836 10.113 10.9416 10.1998 11.0147 10.273C11.1625 10.4207 11.3628 10.5037 11.5717 10.5037C11.7807 10.5037 11.981 10.4207 12.1287 10.273C12.2765 10.1253 12.3595 9.9249 12.3595 9.71599C12.3595 9.50707 12.2765 9.30671 12.1287 9.15899ZM16.7697 15.656C16.8429 15.7291 16.9009 15.816 16.9405 15.9115C16.9801 16.0071 17.0005 16.1095 17.0005 16.213C17.0005 16.3164 16.9801 16.4189 16.9405 16.5144C16.9009 16.61 16.8429 16.6968 16.7697 16.77C16.6966 16.8431 16.6098 16.9012 16.5142 16.9407C16.4186 16.9803 16.3162 17.0007 16.2127 17.0007C16.1093 17.0007 16.0069 16.9803 15.9113 16.9407C15.8157 16.9012 15.7289 16.8431 15.6557 16.77C15.508 16.6223 15.425 16.4219 15.425 16.213C15.425 16.0041 15.508 15.8037 15.6557 15.656C15.8035 15.5083 16.0038 15.4253 16.2127 15.4253C16.4217 15.4253 16.622 15.5083 16.7697 15.656ZM9.34474 8.22999C9.27147 8.15677 9.18449 8.09871 9.08877 8.05912C8.99305 8.01952 8.89047 7.99916 8.78689 7.99921C8.68331 7.99926 8.58075 8.0197 8.48506 8.05939C8.38938 8.09907 8.30245 8.15721 8.22924 8.23049C8.15603 8.30376 8.09797 8.39074 8.05837 8.48646C8.01878 8.58218 7.99842 8.68476 7.99847 8.78834C7.99851 8.89192 8.01896 8.99448 8.05864 9.09017C8.09833 9.18585 8.15646 9.27278 8.22974 9.34599C8.37773 9.49385 8.5784 9.57686 8.7876 9.57677C8.99679 9.57667 9.19739 9.49348 9.34524 9.34549C9.4931 9.1975 9.57611 8.99683 9.57602 8.78763C9.57593 8.57844 9.49273 8.37784 9.34474 8.22999ZM13.0567 11.943C13.2045 12.0906 13.2875 12.2908 13.2876 12.4996C13.2877 12.7085 13.2048 12.9088 13.0572 13.0565C12.9097 13.2042 12.7094 13.2873 12.5006 13.2873C12.2918 13.2874 12.0915 13.2046 11.9437 13.057C11.796 12.9094 11.713 12.7092 11.7129 12.5003C11.7128 12.2915 11.7957 12.0912 11.9432 11.9435C12.0908 11.7958 12.2911 11.7127 12.4999 11.7126C12.7087 11.7125 12.909 11.7954 13.0567 11.943ZM13.9847 14.728C14.0627 14.8 14.1254 14.887 14.1689 14.9838C14.2124 15.0807 14.2359 15.1853 14.238 15.2914C14.2401 15.3975 14.2207 15.503 14.181 15.6014C14.1413 15.6999 14.0822 15.7893 14.0071 15.8643C13.932 15.9394 13.8425 15.9984 13.744 16.038C13.6455 16.0776 13.5401 16.0969 13.4339 16.0947C13.3278 16.0925 13.2232 16.0689 13.1264 16.0253C13.0297 15.9817 12.9427 15.919 12.8707 15.841C12.7328 15.6914 12.6581 15.4942 12.6623 15.2907C12.6665 15.0872 12.7492 14.8933 12.8932 14.7494C13.0371 14.6056 13.2312 14.523 13.4346 14.519C13.6381 14.515 13.8352 14.5899 13.9847 14.728ZM10.2727 11.015C10.1996 10.9418 10.1128 10.8838 10.0172 10.8442C9.92162 10.8046 9.81919 10.7843 9.71574 10.7843C9.6123 10.7843 9.50987 10.8046 9.4143 10.8442C9.31873 10.8838 9.23189 10.9418 9.15874 11.015C9.0856 11.0881 9.02757 11.175 8.98799 11.2705C8.9484 11.3661 8.92803 11.4685 8.92803 11.572C8.92803 11.6754 8.9484 11.7779 8.98799 11.8734C9.02757 11.969 9.0856 12.0558 9.15874 12.129C9.30647 12.2767 9.50683 12.3597 9.71574 12.3597C9.92466 12.3597 10.125 12.2767 10.2727 12.129C10.4205 11.9813 10.5035 11.7809 10.5035 11.572C10.5035 11.3631 10.4205 11.1627 10.2727 11.015Z" fill="black"/>
</svg>
