<svg width="24" height="24" viewBox="0 0 24 24" fill="none" xmlns="http://www.w3.org/2000/svg">
<path d="M11.9999 11C13.1045 11 13.9999 10.1046 13.9999 9.00001C13.9999 7.89544 13.1045 7.00001 11.9999 7.00001C10.8953 7.00001 9.9999 7.89544 9.9999 9.00001C9.9999 10.1046 10.8953 11 11.9999 11Z" fill="#96F658"/>
<path d="M15.9999 15C15.9999 16.105 15.9999 17 11.9999 17C7.9999 17 7.9999 16.105 7.9999 15C7.9999 13.895 9.7899 13 11.9999 13C14.2099 13 15.9999 13.895 15.9999 15Z" fill="#96F658"/>
<path d="M20.25 7.88257C20.25 7.17011 20.2492 6.69852 20.208 6.33765C20.169 5.9958 20.1001 5.83059 20.0137 5.71069C19.9273 5.59084 19.7923 5.47393 19.4805 5.32886C19.151 5.17564 18.7036 5.02497 18.0273 4.79956L16.1904 4.18726C13.9503 3.44055 12.9862 3.12867 12 3.12866C11.0139 3.12868 10.0503 3.44069 7.81055 4.18726L5.97266 4.79956C5.29642 5.02497 4.84896 5.17564 4.51953 5.32886C4.2077 5.47392 4.07276 5.59084 3.98633 5.71069C3.89991 5.83059 3.83102 5.9958 3.792 6.33765C3.75082 6.6986 3.75 7.17081 3.75 7.88354V11.9998C3.74995 14.3116 4.77684 16.5041 6.55274 17.9841L9.59864 20.5222C10.9897 21.6814 13.0103 21.6815 14.4014 20.5222L17.4473 17.9851C19.2234 16.505 20.2499 14.3117 20.25 11.9998V7.88257ZM15.25 14.9998C15.2498 14.884 15.1364 14.5782 14.4932 14.2566C13.8941 13.9571 13.0139 13.7498 12 13.7498C10.9862 13.7498 10.1059 13.9571 9.50684 14.2566C8.86356 14.5782 8.75017 14.884 8.75 14.9998C8.75 15.6041 8.7885 15.6971 8.93946 15.8064C9.06149 15.8947 9.31309 16.014 9.82032 16.1052C10.3218 16.1954 11.0229 16.2498 12 16.2498C12.9772 16.2498 13.6782 16.1954 14.1797 16.1052C14.6869 16.014 14.9385 15.8947 15.0606 15.8064C15.2114 15.6971 15.25 15.6039 15.25 14.9998ZM13.25 8.99976C13.2499 8.30955 12.6902 7.74981 12 7.74976C11.3097 7.74976 10.7501 8.30952 10.75 8.99976C10.75 9.69011 11.3096 10.2498 12 10.2498C12.6903 10.2497 13.25 9.69008 13.25 8.99976ZM16.75 14.9998C16.75 15.5 16.7882 16.4079 15.9395 17.0222C15.5616 17.2956 15.0629 17.4697 14.4453 17.5808C13.8218 17.6929 13.0227 17.7498 12 17.7498C10.9772 17.7498 10.1782 17.693 9.55469 17.5808C8.93712 17.4697 8.43847 17.2956 8.06055 17.0222C7.21177 16.4079 7.25 15.5 7.25 14.9998C7.25014 14.0105 8.03227 13.3166 8.83594 12.9148C9.68433 12.4906 10.804 12.2498 12 12.2498C13.1961 12.2498 14.3157 12.4906 15.1641 12.9148C15.9677 13.3166 16.7499 14.0105 16.75 14.9998ZM14.75 8.99976C14.75 10.5185 13.5187 11.7497 12 11.7498C10.4812 11.7498 9.25 10.5185 9.25 8.99976C9.25014 7.48109 10.4813 6.24976 12 6.24976C13.5187 6.24981 14.7499 7.48113 14.75 8.99976ZM21.75 11.9998L21.7354 12.5154C21.5929 15.0807 20.3927 17.4818 18.4072 19.1365L15.3613 21.6746C13.414 23.2973 10.586 23.2973 8.63868 21.6746L5.59278 19.1365C3.47476 17.3714 2.24993 14.7568 2.25 11.9998V7.88354C2.25 7.2051 2.2486 6.63241 2.30176 6.16675C2.35713 5.68207 2.47851 5.23752 2.76953 4.83374C3.06062 4.42993 3.44432 4.17431 3.88672 3.96851C4.31163 3.77087 4.85455 3.59121 5.49805 3.37671L7.33594 2.7644C9.48403 2.04838 10.7144 1.62868 12 1.62866C13.2857 1.62867 14.516 2.04839 16.6641 2.7644L18.502 3.37671C19.1454 3.59121 19.6884 3.77087 20.1133 3.96851C20.5557 4.17431 20.9394 4.42993 21.2305 4.83374C21.5215 5.23752 21.6429 5.68206 21.6982 6.16675C21.7514 6.6323 21.75 7.20433 21.75 7.88257V11.9998Z" fill="#1C252E"/>
</svg>
