<svg width="24" height="24" viewBox="0 0 24 24" fill="none" xmlns="http://www.w3.org/2000/svg">
<rect x="1.75" y="5.75" width="20.5" height="16.5" rx="5.25" stroke="#1C252E" stroke-width="1.5"/>
<path d="M11.125 1.75H12.875C13.9762 1.75 14.3608 1.75794 14.6533 1.84668C15.3723 2.06483 15.9352 2.62766 16.1533 3.34668C16.2421 3.63923 16.25 4.02376 16.25 5.125C16.25 5.3071 16.2493 5.41576 16.2451 5.49707C16.2412 5.5735 16.2357 5.58412 16.2393 5.57227C16.215 5.65217 16.1522 5.71502 16.0723 5.73926C16.0841 5.73566 16.0735 5.74119 15.9971 5.74512C15.9158 5.74929 15.8071 5.75 15.625 5.75H8.375C8.1929 5.75 8.08424 5.74929 8.00293 5.74512C7.9265 5.74119 7.91588 5.73566 7.92773 5.73926C7.84783 5.71502 7.78498 5.65217 7.76074 5.57227C7.76434 5.58412 7.75881 5.5735 7.75488 5.49707C7.75071 5.41576 7.75 5.3071 7.75 5.125C7.75 4.02376 7.75794 3.63923 7.84668 3.34668C8.06483 2.62766 8.62766 2.06483 9.34668 1.84668C9.63923 1.75794 10.0238 1.75 11.125 1.75Z" stroke="#1C252E" stroke-width="1.5"/>
<path d="M18 6V22" stroke="#1C252E" stroke-width="1.5"/>
<path d="M6 6V14" stroke="#1C252E" stroke-width="1.5"/>
<path d="M6 18V22" stroke="#1C252E" stroke-width="1.5"/>
<path d="M7 13.75H11C11.476 13.75 11.7955 13.7507 12.043 13.7676C12.2837 13.784 12.4014 13.8128 12.4785 13.8447C12.7848 13.9716 13.0284 14.2152 13.1553 14.5215C13.1872 14.5986 13.216 14.7163 13.2324 14.957C13.2493 15.2045 13.25 15.524 13.25 16C13.25 16.476 13.2493 16.7955 13.2324 17.043C13.216 17.2837 13.1872 17.4014 13.1553 17.4785C13.0284 17.7848 12.7848 18.0284 12.4785 18.1553C12.4014 18.1872 12.2837 18.216 12.043 18.2324C11.7955 18.2493 11.476 18.25 11 18.25H7C6.52397 18.25 6.20446 18.2493 5.95703 18.2324C5.71632 18.216 5.59864 18.1872 5.52148 18.1553C5.2152 18.0284 4.97159 17.7848 4.84473 17.4785C4.81277 17.4014 4.784 17.2837 4.76758 17.043C4.75071 16.7955 4.75 16.476 4.75 16C4.75 15.524 4.75071 15.2045 4.76758 14.957C4.784 14.7163 4.81277 14.5986 4.84473 14.5215C4.97159 14.2152 5.2152 13.9716 5.52148 13.8447C5.59864 13.8128 5.71632 13.784 5.95703 13.7676C6.20446 13.7507 6.52397 13.75 7 13.75Z" fill="#96F658" stroke="#1C252E" stroke-width="1.5"/>
</svg>
